<svg xmlns="http://www.w3.org/2000/svg" width="800" height="600" viewBox="0 0 800 600">
  <defs>
    <linearGradient id="bg8" x1="0%" y1="0%" x2="100%" y2="100%">
      <stop offset="0%" style="stop-color:#f8f9fa;stop-opacity:1" />
      <stop offset="100%" style="stop-color:#ffffff;stop-opacity:1" />
    </linearGradient>
    <linearGradient id="sole8" x1="0%" y1="0%" x2="100%" y2="100%">
      <stop offset="0%" style="stop-color:#adb5bd;stop-opacity:1" />
      <stop offset="100%" style="stop-color:#868e96;stop-opacity:1" />
    </linearGradient>
    <linearGradient id="upper8" x1="0%" y1="0%" x2="100%" y2="100%">
      <stop offset="0%" style="stop-color:#c0c0c0;stop-opacity:1" />
      <stop offset="50%" style="stop-color:#868e96;stop-opacity:1" />
      <stop offset="100%" style="stop-color:#495057;stop-opacity:1" />
    </linearGradient>
    <filter id="shadow8" x="-50%" y="-50%" width="200%" height="200%">
      <feDropShadow dx="0" dy="8" stdDeviation="12" flood-color="#000000" flood-opacity="0.18"/>
    </filter>
  </defs>
  
  <!-- Background -->
  <rect width="100%" height="100%" fill="url(#bg8)"/>
  
  <!-- Subtle grid pattern -->
  <defs>
    <pattern id="grid8" width="40" height="40" patternUnits="userSpaceOnUse">
      <path d="M 40 0 L 0 0 0 40" fill="none" stroke="#f1f3f4" stroke-width="0.5" opacity="0.3"/>
    </pattern>
  </defs>
  <rect width="100%" height="100%" fill="url(#grid8)"/>
  
  <!-- Street Proto Sneaker -->
  <g transform="translate(120, 180)" filter="url(#shadow8)">
    <!-- Bounce foam sole -->
    <ellipse cx="280" cy="182" rx="245" ry="47" fill="url(#sole8)"/>
    <ellipse cx="280" cy="178" rx="235" ry="40" fill="#adb5bd"/>
    
    <!-- Main urban body -->
    <path d="M75 142 Q115 95 195 90 Q295 85 395 90 Q475 95 515 127 Q525 137 520 152 Q475 167 415 172 L135 172 Q85 162 75 142 Z" 
          fill="url(#upper8)" stroke="#6c757d" stroke-width="1"/>
    
    <!-- Urban design panels -->
    <path d="M145 117 Q205 102 265 102 Q325 102 385 112 Q405 117 415 127 Q385 137 345 137 Q285 137 225 137 Q175 132 145 117 Z" 
          fill="#6c757d" stroke="#495057" stroke-width="1"/>
    
    <!-- Street-style overlays -->
    <rect x="120" y="125" width="25" height="35" rx="3" fill="#495057" opacity="0.8"/>
    <rect x="415" y="125" width="25" height="35" rx="3" fill="#495057" opacity="0.8"/>
    
    <!-- Contemporary design elements -->
    <path d="M165 130 Q205 125 245 125" stroke="#343a40" stroke-width="3" fill="none"/>
    <path d="M315 125 Q355 130 395 135" stroke="#343a40" stroke-width="3" fill="none"/>
    
    <!-- Urban lacing system -->
    <rect x="215" y="100" width="100" height="35" rx="4" fill="#495057" stroke="#343a40" stroke-width="1"/>
    
    <!-- Street eyelets -->
    <circle cx="230" cy="110" r="4" fill="#6c757d" stroke="#adb5bd" stroke-width="1"/>
    <circle cx="250" cy="107" r="4" fill="#6c757d" stroke="#adb5bd" stroke-width="1"/>
    <circle cx="270" cy="107" r="4" fill="#6c757d" stroke="#adb5bd" stroke-width="1"/>
    <circle cx="290" cy="110" r="4" fill="#6c757d" stroke="#adb5bd" stroke-width="1"/>
    <circle cx="300" cy="113" r="4" fill="#6c757d" stroke="#adb5bd" stroke-width="1"/>
    
    <!-- Urban laces -->
    <path d="M230 110 Q240 102 250 107" stroke="#212529" stroke-width="2.5" fill="none"/>
    <path d="M250 107 Q260 99 270 107" stroke="#212529" stroke-width="2.5" fill="none"/>
    <path d="M270 107 Q280 99 290 110" stroke="#212529" stroke-width="2.5" fill="none"/>
    <path d="M290 110 Q295 105 300 113" stroke="#212529" stroke-width="2.5" fill="none"/>
    
    <!-- Street brand element -->
    <rect x="370" y="120" width="18" height="18" rx="2" fill="#343a40" stroke="#6c757d" stroke-width="1"/>
    <text x="379" y="132" text-anchor="middle" font-family="Arial, sans-serif" font-size="10" font-weight="bold" fill="#adb5bd">ST</text>
    
    <!-- Contemporary stitching -->
    <path d="M95 157 Q185 152 275 152 Q365 152 455 157" 
          stroke="#6c757d" stroke-width="1.5" stroke-dasharray="5,3" fill="none"/>
    
    <!-- Bounce foam indicators -->
    <circle cx="200" cy="162" r="6" fill="#adb5bd" opacity="0.7"/>
    <circle cx="240" cy="161" r="6" fill="#adb5bd" opacity="0.7"/>
    <circle cx="280" cy="160" r="6" fill="#adb5bd" opacity="0.7"/>
    <circle cx="320" cy="161" r="6" fill="#adb5bd" opacity="0.7"/>
    <circle cx="360" cy="162" r="6" fill="#adb5bd" opacity="0.7"/>
    
    <!-- Urban sole pattern -->
    <g opacity="0.8">
      <path d="M135 172 Q280 169 425 172" stroke="#6c757d" stroke-width="2" fill="none"/>
      <path d="M155 177 Q280 174 405 177" stroke="#868e96" stroke-width="1.5" fill="none"/>
      
      <!-- Street traction -->
      <rect x="180" y="175" width="6" height="3" fill="#6c757d"/>
      <rect x="220" y="174" width="6" height="3" fill="#6c757d"/>
      <rect x="260" y="173" width="6" height="3" fill="#6c757d"/>
      <rect x="300" y="173" width="6" height="3" fill="#6c757d"/>
      <rect x="340" y="174" width="6" height="3" fill="#6c757d"/>
      <rect x="380" y="175" width="6" height="3" fill="#6c757d"/>
    </g>
  </g>
  
  <!-- Product label -->
  <rect x="50" y="50" width="200" height="60" rx="8" fill="rgba(255,255,255,0.9)" stroke="#e9ecef" stroke-width="1"/>
  <text x="70" y="75" font-family="Cabin, Arial, sans-serif" font-size="16" font-weight="600" fill="#495057">Street Proto</text>
  <text x="70" y="95" font-family="Cabin, Arial, sans-serif" font-size="12" fill="#6c757d">Urban Ready • Bounce Foam</text>
</svg>